<?xml version="1.0" standalone="no"?>
<!DOCTYPE svg PUBLIC "-//W3C//DTD SVG 20010904//EN"
 "http://www.w3.org/TR/2001/REC-SVG-20010904/DTD/svg10.dtd">
<svg version="1.0" xmlns="http://www.w3.org/2000/svg"
 width="464.000000pt" height="464.000000pt" viewBox="0 0 464.000000 464.000000"
 preserveAspectRatio="xMidYMid meet">
<metadata>
Created by potrace 1.14, written by Peter Selinger 2001-2017
</metadata>
<g transform="translate(0.000000,464.000000) scale(0.100000,-0.100000)"
fill="#000000" stroke="none">
<path d="M1997 3659 c-11 -7 -15 -18 -12 -32 4 -21 10 -87 21 -237 3 -35 6
-66 8 -67 1 -2 88 -5 192 -8 104 -3 268 -7 364 -10 96 -2 270 -7 385 -10 116
-3 280 -8 365 -10 85 -3 261 -7 390 -11 129 -3 236 -7 238 -9 4 -4 9 -43 16
-140 4 -44 8 -100 11 -125 2 -25 7 -79 10 -120 3 -41 8 -95 11 -120 7 -74 13
-140 19 -231 3 -48 7 -95 9 -105 2 -11 7 -66 11 -123 4 -57 9 -111 10 -120 2
-9 4 -21 4 -26 1 -6 20 -11 44 -12 23 0 156 -4 295 -7 l253 -7 -5 55 c-8 72
-14 142 -22 241 -3 44 -8 98 -10 120 -2 22 -6 72 -9 110 -3 39 -8 88 -10 110
-3 22 -7 76 -10 120 -3 44 -8 96 -10 115 -2 19 -7 71 -10 115 -3 44 -8 98 -10
120 -2 22 -9 105 -15 183 -7 79 -13 151 -14 160 -2 13 -15 17 -62 19 -32 1
-160 4 -284 7 -124 3 -297 8 -385 11 -88 3 -248 8 -355 10 -107 2 -285 7 -395
10 -326 9 -486 14 -755 20 -140 4 -257 8 -260 10 -3 2 -13 -1 -23 -6z"/>
<path d="M995 3080 c-2 -3 -2 -21 0 -39 2 -18 7 -70 11 -114 3 -45 7 -91 9
-102 1 -11 3 -34 4 -52 1 -32 1 -32 54 -31 28 0 147 -2 262 -6 292 -9 504 -15
1145 -31 351 -9 472 -14 477 -19 3 -3 7 -29 9 -58 2 -29 6 -75 8 -103 3 -27 8
-86 11 -130 3 -44 8 -96 10 -115 2 -19 7 -66 10 -105 3 -38 8 -90 10 -115 2
-25 7 -81 10 -125 3 -44 9 -102 12 -130 7 -62 10 -107 12 -165 1 -25 5 -51 10
-58 6 -10 50 -15 172 -18 90 -2 221 -6 292 -8 l128 -4 -5 41 c-3 23 -8 74 -11
112 -3 39 -8 90 -10 115 -2 25 -7 81 -10 125 -4 44 -8 96 -10 115 -3 19 -7 71
-10 115 -3 44 -8 103 -11 130 -8 79 -14 145 -19 215 -12 152 -16 197 -20 235
-4 38 -16 184 -19 232 -1 12 -4 24 -7 27 -3 3 -93 8 -200 11 -107 3 -277 7
-379 10 -102 3 -268 7 -370 10 -307 8 -566 15 -735 20 -88 3 -268 8 -400 11
-132 3 -284 7 -338 9 -54 1 -100 -1 -102 -5z"/>
<path d="M4 2463 c3 -26 8 -84 11 -128 7 -89 15 -159 20 -163 4 -4 172 -10
450 -17 132 -3 312 -7 400 -10 88 -3 241 -7 340 -10 99 -2 281 -7 405 -11 124
-3 251 -6 283 -6 l57 -1 1 -31 c0 -17 2 -40 4 -51 2 -11 7 -56 10 -100 13
-169 15 -201 20 -235 2 -19 7 -73 10 -120 3 -47 8 -101 10 -120 4 -32 12 -130
20 -235 13 -159 17 -202 21 -217 5 -15 18 -18 87 -19 45 0 134 -2 197 -4 305
-10 315 -9 306 23 -3 10 -8 55 -11 102 -4 47 -8 101 -10 120 -2 19 -6 76 -10
125 -4 50 -8 97 -10 105 -2 8 -6 60 -10 115 -3 55 -8 111 -10 125 -2 14 -6 61
-10 105 -3 44 -8 96 -10 115 -2 19 -7 73 -10 120 -4 47 -8 101 -10 120 -2 19
-6 76 -10 127 -4 51 -8 100 -10 110 -2 10 -4 25 -4 33 -1 11 -15 15 -59 16
-132 2 -664 15 -752 19 -52 2 -203 7 -335 10 -333 8 -483 12 -1158 30 l-227 7
4 -49z"/>
</g>
</svg>
