<svg id="Layer_3" data-name="Layer 3" xmlns="http://www.w3.org/2000/svg" viewBox="0 0 64 43.33"><defs><style>.cls-1{fill:#fff;}.cls-2{fill:#d6000f;}</style></defs><path class="cls-1" d="M27.67,42.45A33.36,33.36,0,0,1,11.34,38a58.5,58.5,0,0,1-8.2-5.84,5.09,5.09,0,0,1-2.32-4A5.1,5.1,0,0,1,3.4,24.28C5.06,23.11,6.8,22.05,8.48,21l.67-.41,0-.08a34.9,34.9,0,0,1-1.68-4.77A10.1,10.1,0,0,1,11.09,5.24,18.29,18.29,0,0,1,23.19.88C23.8.88,24.42.9,25,1,31,1.44,36.61,3.8,42.87,8.36a2.54,2.54,0,0,0,.93.42c3.74.77,8.57,2.07,12.66,5.25,4.73,3.68,7,8.24,6.7,13.56-.34,6.22-4.49,11-10.85,12.49a24.05,24.05,0,0,1-5.38.61,28.61,28.61,0,0,1-6.65-.83A33.13,33.13,0,0,1,27.67,42.45Z"/><path class="cls-2" d="M23.19,1.33c.59,0,1.2,0,1.81.08,5.82.48,11.42,2.81,17.6,7.32a3,3,0,0,0,1.1.49c3.7.77,8.47,2,12.48,5.17,4.61,3.58,6.8,8,6.52,13.18-.32,6-4.34,10.63-10.49,12.06a23.17,23.17,0,0,1-5.28.6,27.52,27.52,0,0,1-6.58-.83l-.12,0A32.6,32.6,0,0,1,27.67,42a33,33,0,0,1-16.11-4.42,58,58,0,0,1-8.14-5.8,4.72,4.72,0,0,1-2.15-3.64c.06-1.63,1.31-2.72,2.39-3.49C5.31,23.49,7,22.43,8.71,21.42l1-.61-.18-.45a35.25,35.25,0,0,1-1.66-4.7A9.65,9.65,0,0,1,11.38,5.59,17.86,17.86,0,0,1,23.19,1.33m0-.91A18.79,18.79,0,0,0,10.8,4.89,10.53,10.53,0,0,0,7,15.88a33.87,33.87,0,0,0,1.59,4.55l-.16.1-.18.11c-1.68,1-3.43,2.09-5.1,3.27C2,24.73.43,26.05.37,28.12s1.38,3.48,2.48,4.37a58.84,58.84,0,0,0,8.26,5.89,34,34,0,0,0,16.56,4.53,33.5,33.5,0,0,0,12.65-2.58,28.57,28.57,0,0,0,6.61.81,24.29,24.29,0,0,0,5.48-.62C59,39,63.27,34,63.61,27.61c.3-5.47-2-10.16-6.87-13.94-4.16-3.24-9.06-4.55-12.85-5.34A2.15,2.15,0,0,1,43.13,8C36.81,3.38,31.07,1,25.07.5c-.63,0-1.26-.08-1.88-.08Z"/><path class="cls-2" d="M12.23,21.64a57.92,57.92,0,0,1-2.38-6.47,7.62,7.62,0,0,1,2.84-8A16.16,16.16,0,0,1,24.83,3.43C31.09,4,36.42,6.74,41.4,10.37a5.1,5.1,0,0,0,1.89.84c4.19.87,8.22,2.12,11.64,4.78,3.72,2.89,6,6.57,5.74,11.47-.27,5.13-3.62,9-8.93,10.2a23.27,23.27,0,0,1-10.91-.23,2.19,2.19,0,0,0-1.27,0c-9.28,3.9-18.32,3.18-27-1.65A57.17,57.17,0,0,1,4.7,30.2c-1.91-1.55-1.85-2.49.13-3.89,2.29-1.61,4.73-3,7.11-4.49Zm3.31-4.09c.08,2.5.82,4.52,3.21,5.87,2.63,1.49,5.09,3.29,7.63,5,1.26.82,1.93.69,2.72-.61a5.65,5.65,0,0,0,.42-4.48,14.84,14.84,0,0,0-7.87-9.61c-3.59-1.94-6.06-.43-6.11,3.65Z"/><path class="cls-1" d="M15.54,17.55v-.22c.05-4.08,2.52-5.59,6.11-3.65a14.84,14.84,0,0,1,7.87,9.61,5.65,5.65,0,0,1-.42,4.48c-.79,1.3-1.46,1.43-2.72.61-2.54-1.67-5-3.47-7.63-5C16.36,22.07,15.62,20.05,15.54,17.55Zm2.72,4,1.36-3.54,1.32,3.46,2.37-1.17c.57,1.83,1.13,3.57,1.63,5.32.2.7.54.91,1.21.68.3-.11.61-.19,1-.29l-2.71-8.41-3,1.62-1.73-4.52c-.75,1.2-1.41,2.15-1.95,3.15C16.71,19.69,16.78,20,18.26,21.59Z"/><path class="cls-2" d="M18.26,21.59c-1.48-1.6-1.55-1.9-.58-3.7.54-1,1.2-2,1.95-3.15l1.73,4.52,3-1.62,2.71,8.41c-.34.1-.65.18-1,.29-.67.23-1,0-1.21-.68-.5-1.75-1.06-3.49-1.63-5.32l-2.37,1.17-1.32-3.46Z"/></svg>