<svg id="Layer_4" data-name="Layer 4" xmlns="http://www.w3.org/2000/svg" viewBox="0 0 64 64"><path d="M55.5,37.56C49.15,41,40.8,42.83,32,42.83S14.85,41,8.5,37.56a26.27,26.27,0,0,1-6.83-5.11v9.3C1.67,50.72,15.25,58,32,58s30.33-7.28,30.33-16.25v-9.3A26.27,26.27,0,0,1,55.5,37.56Z"/><path d="M32,6C15.25,6,1.67,13.28,1.67,22.25a9.79,9.79,0,0,0,.07,1.08C2.78,31.8,15.93,38.5,32,38.5s29.22-6.7,30.26-15.17a9.79,9.79,0,0,0,.07-1.08C62.33,13.28,48.75,6,32,6ZM46.08,32,33.21,25.07a9.46,9.46,0,0,1-1.21.08c-2.28,0-4.22-.75-5-1.82a1.8,1.8,0,0,1-.4-1.08,1.78,1.78,0,0,1,.35-1l-9-8.76,12.87,6.93A9.46,9.46,0,0,1,32,19.35c3,0,5.42,1.3,5.42,2.9a1.78,1.78,0,0,1-.35,1l.09.09Z"/></svg>