<svg id="Layer_2" data-name="Layer 2" xmlns="http://www.w3.org/2000/svg" viewBox="0 0 64 64">
    <path d="M54.21,11.81A52.57,52.57,0,0,0,41,7.75a35.36,35.36,0,0,0-1.69,3.44,48.62,48.62,0,0,0-14.65,0A35.44,35.44,0,0,0,23,7.75,53.21,53.21,0,0,0,9.76,11.82C1.4,24.18-.86,36.24.27,48.12h0a53.05,53.05,0,0,0,16.2,8.13,38.25,38.25,0,0,0,3.46-5.59,34.61,34.61,0,0,1-5.46-2.61c.46-.33.91-.67,1.34-1a38.06,38.06,0,0,0,32.38,0c.44.35.88.7,1.34,1a35.19,35.19,0,0,1-5.47,2.62,38.69,38.69,0,0,0,3.46,5.58,52.85,52.85,0,0,0,16.21-8.12h0A53.28,53.28,0,0,0,54.21,11.81Zm-32.84,29c-3.16,0-5.77-2.86-5.77-6.38S18.12,28,21.36,28a6.06,6.06,0,0,1,5.77,6.42C27.07,38,24.59,40.81,21.37,40.81Zm21.26,0c-3.16,0-5.76-2.86-5.76-6.38S39.39,28,42.63,28a6,6,0,0,1,5.75,6.42C48.33,38,45.85,40.81,42.63,40.81Z" />
</svg>