<svg xmlns="http://www.w3.org/2000/svg" viewBox="0 0 159.9 140.11"><path d="M0,80v-30c3.33-2.16,6.72-1.94,10.16-.29,2.13,3.23,1.19,6.85,1.3,10.34-.37,6.65,1.37,13.44-1.25,19.95A9,9,0,0,1,0,80Z" fill="#a3a3a3"/><path d="M159.9,60.06V80c-3.29,2.15-6.64,1.95-10,.22-2.26-3.13-1.3-6.72-1.42-10.15.12-3.44-.81-7,1.35-10.2C153.2,58.07,156.57,57.91,159.9,60.06Z" fill="#d3d3d3"/><path d="M10,50.07H0v-10l19.93,0,.65.66c1.11,3.33,1.51,6.62-.71,9.72C16.52,52,13.22,52.18,10,50.07Z" fill="#bebebe"/><path d="M159.9,100l-19.94,0-.64-.66c-1.1-3.31-1.47-6.57.66-9.67,3.15-1.86,6.62-1,10-1.15,3.37.11,6.9-.86,9.94,1.44Z" fill="#888"/><path d="M159.9,60.06l-10,.13-.59-.6a12.53,12.53,0,0,1,0-9L150,50l9.93.06Z" fill="#a3a3a3"/><path d="M0,80l9.88.07.62.55a12,12,0,0,1,.06,8.81c-.19.2-.39.39-.59.58L0,90Z" fill="#888"/><path d="M159.9,90l-10-.06c-2-3-1.63-6.2-.58-9.42l.62-.66,10,.15Z" fill="#a3a3a3"/><path d="M79.9,10.06C80.07.12,80.07.12,90,.12c5.14,0,10.31.27,15.43-.08,3.77-.27,5.1.89,4.55,4.61a37,37,0,0,0,0,5.47l-.64.61c-3.1,1.31-6.36.66-9.55.8s-6.42.09-9.63,0-6.51.55-9.62-.83Z" fill="#bebebe"/><path d="M59.91,20.05c.18-9.94.18-9.93,10-9.94,3.31,0,6.62,0,9.94,0l.09.09c2.09,3.27,1.88,6.59.22,9.94-3,2.27-6.53,1.34-9.88,1.44-3.27-.14-6.62.56-9.79-.84Z" fill="#bebebe"/><path d="M39.92,30c.18-9.94.18-9.93,10-9.94,3.31,0,6.63,0,9.94-.05l.09.09c2.11,3.28,1.87,6.63.34,10-3.09,2.17-6.6,1.26-10,1.35-3.28-.14-6.64.57-9.82-.84Z" fill="#bebebe"/><path d="M19.93,40c.18-9.94.18-9.93,10.06-9.94,3.31,0,6.62,0,9.93-.05l.09.09c2.12,3.31,1.9,6.69.28,10.1-3.19,2.12-6.76,1.21-10.21,1.31-3.4-.14-7,.87-10.06-1.42Z" fill="#bebebe"/><path d="M129.92,30.1c10,0,10,0,10,10l-.65.61c-3.21,1.08-6.37,1.33-9.45-.47-1.87-3.07-1.59-6.25-.51-9.48C129.5,30.53,129.71,30.31,129.92,30.1Z" fill="#a3a3a3"/><path d="M139.91,40.09c9.87,0,9.87,0,10.06,9.92l-.1.1c-3.34,2.09-6.7,2-10.08.09-1.88-3.4-2-6.78.13-10.12Z" fill="#a3a3a3"/><path d="M110,10.12c10,0,10,0,10,10l-.67.62c-3.32,1-6.6,1.48-9.67-.76-1.52-3.34-1.77-6.63.38-9.82Z" fill="#a3a3a3"/><path d="M119.92,20.11c10,0,10,0,10,10h0c-3.34,2.15-6.71,2-10.11.15-1.91-3.4-2-6.79.11-10.14Z" fill="#a3a3a3"/><path d="M80,130.05C79.82,140,79.82,140,69.93,140c-5.16,0-10.33-.27-15.45.09-3.74.26-5.13-.83-4.56-4.59A34.41,34.41,0,0,0,50,130l.64-.61c3.09-1.35,6.35-.68,9.54-.82s6.43-.1,9.64,0,6.51-.55,9.62.84Z" fill="#888"/><path d="M140,100.07c-.14,9.94-.14,9.94-10,9.94l-10,.06-.66-.67c-1.09-3.4-1.6-6.74.86-9.83,6.6-1.48,13.19-2.26,19.7.42Z" fill="#888"/><path d="M120,110.07c-.19,9.93-.19,9.93-10,9.93-3.32,0-6.63,0-10,.06l-.65-.65c-1.12-3.31-1.47-6.57.64-9.68,3.15-1.87,6.61-1.06,10-1.16,3.35.13,6.87-.86,9.93,1.4Z" fill="#888"/><path d="M100,120.06C99.81,130,99.81,130,90,130c-3.32,0-6.63,0-9.95.06l-.1-.1c-2.09-3.3-1.91-6.64-.15-10,3.13-2.22,6.7-1.28,10.12-1.4,3.39.14,6.93-.87,10,1.41Z" fill="#888"/><path d="M20,100C10,100,10,100,10,90.05l0,0c3.2-2.07,6.48-1.84,9.82-.36,2.29,3.08,1.85,6.37.78,9.72C20.4,99.6,20.18,99.82,20,100Z" fill="#888"/><path d="M30,110C20,110,20,110,20,100l0,0c3.2-2.07,6.48-1.84,9.81-.36,2.3,3.08,1.85,6.37.79,9.72Z" fill="#888"/><path d="M50,130C40,130,40,130,40,120l.67-.63c3.32-1.06,6.6-1.49,9.68.74,1.55,3.33,1.77,6.63-.32,9.84Z" fill="#888"/><path d="M40,120C30,120,30,120,30,110l0,0c3.34-2.12,6.7-2,10.09-.12,1.9,3.39,2,6.76-.1,10.11Z" fill="#888"/><path d="M9.88,80.11,10.05,60c3.3-2.07,6.63-1.89,10-.14,2.22,3.13,1.28,6.7,1.4,10.13-.12,3.43.8,7-1.33,10.18-3.38,1.85-6.74,2-10.06-.14Z" fill="#bebebe"/><path d="M19.91,60.13,10.05,60q0-5-.05-9.94L19.91,50l.61.58a12.12,12.12,0,0,1,0,9C20.33,59.76,20.12,60,19.91,60.13Z" fill="#d9d9d9"/><path d="M149.92,60.19,149.77,70c-3.28,2.28-6.62,2-10,.2a9.88,9.88,0,0,1,0-10.2A10.31,10.31,0,0,1,150,59.72l.13.26Z" fill="#fff"/><path d="M139.82,69.85l10,.12q.06,5,.13,9.92l.22.17-.12.26a11.05,11.05,0,0,1-9.7.26c-2.61-2.75-1.73-6-1.41-9.25A3.45,3.45,0,0,1,139.82,69.85Z" fill="#fff"/><path d="M20,40.12l10,0a9.39,9.39,0,0,1,.06,10,9.26,9.26,0,0,1-10.06,0L19.91,50C20,46.71,20,43.41,20,40.12Z" fill="#d9d9d9"/><path d="M139.89,100l-19.88.27-.66-.65c-1.2-3.32-1.4-6.6.35-9.81,3-1.89,6.4-1.1,9.66-1.18,3.14.11,6.31-.3,9.41.5a2.68,2.68,0,0,1,1.31,1.08Q140,95.1,139.89,100Z" fill="#bebebe"/><path d="M140,80.09l10.05.23q-.06,4.83-.14,9.65l-9.78.23-.29-.29c-1.88-3-1.52-6.07-.46-9.2Z" fill="#bebebe"/><path d="M150,59.72l-10.09.34-.57-.59a12.15,12.15,0,0,1,.06-8.82l.61-.54h9.86Z" fill="#bebebe"/><path d="M10.05,80l9.73,0,.64.47c1.3,2.78,1,5.64.41,8.51a2.27,2.27,0,0,1-1,1.16L10,90Z" fill="#d9d9d9"/><path d="M79.92,20q0-4.92.07-9.84H90c2.1,3.22,1.83,6.53.42,9.89-3.15,2.18-6.47,1.79-9.83.62C80.34,20.45,80.13,20.22,79.92,20Z" fill="#d9d9d9"/><path d="M89.92,20.06q0-4.95,0-9.9l10,.05c2.09,3.34,1.94,6.69,0,10.05C96.63,22.06,93.25,22.35,89.92,20.06Z" fill="#e8e8e8"/><path d="M100,20.11c0-3.3,0-6.6,0-9.9l10-.06q0,5,0,9.94c-.2.19-.39.38-.58.58a12.6,12.6,0,0,1-8.83,0C100.34,20.5,100.14,20.31,100,20.11Z" fill="#fff"/><path d="M59.91,30,60,20.14H70c2.13,3.37,2,6.78.17,10.21C66.68,32,63.25,32.4,59.91,30Z" fill="#d9d9d9"/><path d="M69.93,30.05l.06-9.9L79.92,20l.06.22c2.12,3.33,2,6.68.06,10C76.64,32.05,73.26,32.34,69.93,30.05Z" fill="#e8e8e8"/><path d="M69.93,30.05l10,.05.59.58a7.61,7.61,0,0,1,.84,3.85c.06,2.58,1.19,4.11,3.89,4.08,4.06,0,6.23,1.77,6.13,6-.06,2.63,1.26,4,3.93,4,4.09,0,6.19,1.84,6.06,6-.08,2.68,1.3,3.9,4,4,1.8.06,3.7,0,5.1,1.54a11.52,11.52,0,0,1-.14,10c-3,2.16-6.52,1.29-9.86,1.36-1.12,0-2.26.13-3.39,0-3.68-.38-6,.67-5.76,4.95a5,5,0,0,1-1.36,4c-3.16,1.62-6.54,1-9.86,1s-6.71.12-10.07,0-6.66.61-9.8-1c-.24-.21-.64-.45-.64-.71,0-6.38-3.79-9-9.6-9.48-.23-.24-.59-.51-.58-.78.27-6.46-3.69-8.58-9.26-9.07-.35-.34-.86-.72-.84-1.16.33-6.17-3.09-8.51-8.73-8.63L30,50.08q0-5,.07-9.93L39.92,40a9.46,9.46,0,0,1,9.65-.29c.23.22.65.45.66.7.29,6.15,4,8.86,9.63,9.57.23.24.6.49.6.75-.13,6.3,3.86,8.38,9.23,9.07,1.75,1.46,1.57,3.54,1.68,5.49.16,2.56,1.61,3.39,3.95,3.32,2-.06,3.11-.88,3.18-3,.09-2.24-.48-3.91-3.1-4.14-2-.17-4,.07-5.57-1.58-.4-6.16-3.92-9.19-9.84-9.83-1.5-3.2-6.48-8.19-10.3-10.31-1.72-3.28-1.81-6.5.35-9.63L59.91,30Z" fill="#fff"/><path d="M50,30.16l-.07,10,.05-.05L39.92,40,40,30.13Z" fill="#d9d9d9"/><path d="M119.94,30.08h10c0,3.33,0,6.65,0,10l-.65.62c-3.21,1.1-6.39,1.34-9.47-.46-1.87-3.08-1.61-6.27-.5-9.51Z" fill="#fff"/><path d="M139.92,40.08l.09,10-.25-.12c-3.28,2.28-6.61,2-10,.19-1.85-3.38-2-6.75.13-10.09l0,0Z" fill="#fff"/><path d="M119.93,20.1c0,3.33,0,6.65,0,10l0,0c-3.34,2.14-6.7,2-10.1.14-1.9-3.4-2-6.77.11-10.13l0,0Z" fill="#fff"/><path d="M50,130l-.2-9.77.61-.71c3.35-1.27,6.65-1.55,9.83.53,1.63,3.34,1.9,6.64-.32,9.86Z" fill="#d9d9d9"/><path d="M59.91,129.88l.1-9.76c.21-.22.43-.44.63-.67,3.32-1.16,6.58-1.54,9.66.68,1.53,3.33,1.8,6.62-.39,9.8Z" fill="#bebebe"/><path d="M69.91,129.93l.1-9.81.5-.6c2.76-1.19,5.58-.93,8.41-.33a2.05,2.05,0,0,1,1.1,1c0,3.24-.07,6.47-.11,9.71Z" fill="#a3a3a3"/><path d="M119.89,110l-10,0c-2.08-3.32-1.92-6.66-.11-10a9.5,9.5,0,0,1,10.08,0l.15.38Z" fill="#a3a3a3"/><path d="M109.91,100.23q0,4.86,0,9.72l-9.87.3-.64-.62a12.13,12.13,0,0,1,.09-9.51c2.84-2.2,6-1.52,9.15-1A2.57,2.57,0,0,1,109.91,100.23Z" fill="#bebebe"/><path d="M99.9,120l-10,0c-2.08-3.32-1.92-6.66-.11-10a9.5,9.5,0,0,1,10.08,0l.15.38Z" fill="#a3a3a3"/><path d="M89.92,110.22c0,3.24,0,6.48,0,9.72l-9.88.3-.14-.38c-2.06-3.1-1.64-6.32-.5-9.58,2.81-2.47,6-1.67,9.23-1.17A2.59,2.59,0,0,1,89.92,110.22Z" fill="#bebebe"/><path d="M29.79,100.2,20,100q-.12-4.89-.22-9.79l.33-.31c3.13-2,6.34-1.61,9.59-.33,2.44,2.83,1.7,6.08,1.19,9.3A2.68,2.68,0,0,1,29.79,100.2Z" fill="#d9d9d9"/><path d="M39.78,110.19,30,110l-.21-9.79.32-.31c3.13-2,6.34-1.61,9.59-.33,2.45,2.83,1.71,6.08,1.19,9.3A2.63,2.63,0,0,1,39.78,110.19Z" fill="#d9d9d9"/><path d="M40,120l-.21-9.79.32-.31a9.47,9.47,0,0,1,10,0,9.36,9.36,0,0,1,0,10l-.31.33Z" fill="#d9d9d9"/><path d="M19.78,80.07l.28-9.9c3.27-2.34,6.61-2,10-.29a9.91,9.91,0,0,1,.14,10.19c-3.34,2-6.68,2.16-10-.06Z" fill="#fff"/><path d="M30,70.07l-9.9.1-.15-10,.15-.14c2.9-2,6-1.4,9.13-.78a3,3,0,0,1,1.33,1.07,12.91,12.91,0,0,1,.05,9.18C30.37,69.67,30.17,69.87,30,70.07Z" fill="#d9d9d9"/><path d="M30,60.09,20.06,60V50.14L30,50.08l0,0A8.64,8.64,0,0,1,30,60.09Z" fill="#fff"/><path d="M139.91,60.06l-.09,9.8.11.29c-3,2.09-6.34,1.22-9.57,1.32-3.19-.1-6.41.34-9.56-.53a3.27,3.27,0,0,1-1.38-1.06,13.92,13.92,0,0,1-.17-9.4,2.79,2.79,0,0,1,1.27-1.2c3.18-1.05,6.46-.54,9.71-.64,3.29.09,6.72-.82,9.69,1.43Z" fill="#bebebe"/><path d="M130,70.21l10-.06q0,5,0,9.94h0c-3,2-6.18,1.52-9.4.76a2.88,2.88,0,0,1-1.31-1.2C128.34,76.41,127.76,73.2,130,70.21Z" fill="#fff"/><path d="M129.87,89.88l-9.82.23c-3,1.94-6.28,1.53-9.55.69a3,3,0,0,1-1.3-1.26c-.89-3.36-1.37-6.69.65-9.85,3.21-1.8,6.69-1,10.09-1.1,3.39.11,6.93-.86,10,1.47l0,0A8.36,8.36,0,0,1,129.87,89.88Z" fill="#fff"/><path d="M129.87,89.88q0-4.93,0-9.85l10.05,0c-.05,3.28-.11,6.55-.17,9.83Z" fill="#fff"/><path d="M109.92,90l10.13.09c-.06,3.25-.13,6.51-.19,9.77l-10,.35,0-.41A8.36,8.36,0,0,1,109.92,90Z" fill="#fff"/><path d="M139.92,60.07l-10-.1c-2-3-1.59-6.09-.56-9.25l.6-.64,9.85-.09C139.81,53.35,139.87,56.71,139.92,60.07Z" fill="#e8e8e8"/><path d="M20.19,80H30l.56.61a12.74,12.74,0,0,1-.05,8.88l-.59.57-9.83-.16Z" fill="#fff"/><path d="M80,30.1l0-9.89,9.94-.15,10,.05h0a9.06,9.06,0,0,1,0,10.2c-6.7,2.06-13.38,2.36-20-.21Z" fill="#fff"/><path d="M99.91,30.15c0-3.35,0-6.7,0-10h10v10l-.59.57a12.94,12.94,0,0,1-8.83,0Z" fill="#e8e8e8"/><path d="M80,30.09l20,.06,0,0c.34.35.86.75.84,1.17-.35,6.12,3.1,8.13,8.57,8a2.85,2.85,0,0,1,1.18,1c-.09,6.2,2.77,9.47,9.19,9.21a2.92,2.92,0,0,1,1.09,1.27c.74,3.21,1.29,6.4-.85,9.35l0,0a9,9,0,0,1-10.07.1,20,20,0,0,0-3.46-.06c-5,.77-7.42-1-6.5-6.33.65-3.8-2-4-4.6-3.65-4.44.66-6-1.11-5.43-5.46.3-2.25.55-4.54-3.19-4.65C80,39.8,80,39.57,80,32.57Z" fill="#bebebe"/><path d="M119.8,80,110,80.2c-3,1.84-6.23,1.42-9.44.62a2.85,2.85,0,0,1-1.29-1.21c-.9-3.25-1.46-6.47.75-9.47l9.88-.18a9,9,0,0,1,10.05.09h0C122,73.39,122.12,76.69,119.8,80Z" fill="#bebebe"/><path d="M80,80.13,89.87,80a9,9,0,0,1,10.06,0l0,0c2.13,3.31,1.9,6.68.29,10.1C97.07,92.3,93.49,91.38,90,91.48c-3.44-.11-7,.81-10.21-1.32C78,86.79,77.76,83.43,80,80.13Z" fill="#bebebe"/><path d="M60,50c-10.13.1-10.13.1-10-10l-.05.05C60,40,60,40,59.93,50.1Z" fill="#bebebe"/><path d="M30,60.09q0-5,0-10c10,0,10,0,10,10-.22.2-.44.4-.65.61C36.11,61.75,33,62.1,30,60.06Z" fill="#e8e8e8"/><path d="M70,60c-10.09.1-10.09.1-10-10l-.06.06C70,50,70,50,69.93,60.09Z" fill="#bebebe"/><path d="M40,60.07c10,0,10,0,10,10l-.61.58a13.57,13.57,0,0,1-9.09,0,3,3,0,0,1-1.12-1.3c-.7-3.19-1.25-6.36.84-9.29Z" fill="#e8e8e8"/><path d="M69.93,60.09l4,0c5.69,0,7.93,3,5.89,8.28-1.25,3.24-4.32,1.25-6.54,1.66-1.76.32-3.36-.08-3.3-2.49s0-5,0-7.48Z" fill="#bebebe"/><path d="M119.93,70.05,109.88,70V60.15l10.07-.1C119.94,63.38,119.93,66.72,119.93,70.05Z" fill="#e8e8e8"/><path d="M50,70.06c10,0,10,0,10,10l-.68.62c-3.33,1-6.61,1.49-9.67-.78-1.53-3.34-1.75-6.64.37-9.85Z" fill="#e8e8e8"/><path d="M99.93,80,89.87,80c0-.17,0-.33,0-.49.18-9.62.18-9.62,10.1-9.35C100,73.44,100,76.73,99.93,80Z" fill="#d9d9d9"/><path d="M60,80.05l10,0c2.13,3.34,1.94,6.73.24,10.16a10.34,10.34,0,0,1-10.32,0c-2-3.41-2.1-6.81.07-10.19Z" fill="#e8e8e8"/><path d="M69.93,90q0-5,0-9.9l10,0c0,3.33,0,6.66,0,10l-.69.58C76.11,91.61,72.91,92.23,69.93,90Z" fill="#d9d9d9"/><path d="M129.91,40.09v10h0a8.8,8.8,0,0,1-10.06,0l0,0c-2-3-1.68-6.18-.61-9.39l.62-.65Z" fill="#e8e8e8"/><path d="M109.93,30.1h10v10h0a8.8,8.8,0,0,1-10.06,0l0,0a8.75,8.75,0,0,1,0-10Z" fill="#e8e8e8"/><path d="M50.1,119.87,49.94,110l.66-.63c3.32-1.08,6.59-1.48,9.68.7,1.54,3.32,1.85,6.59-.38,9.77l.11.24Z" fill="#fff"/><path d="M59.9,119.88v-9.79c.19-.2.38-.41.58-.61a13.39,13.39,0,0,1,9.13-.11,2.85,2.85,0,0,1,1.16,1.27c.71,3.17,1.35,6.34-.86,9.24l.11.24Z" fill="#fff"/><path d="M69.9,119.88q0-4.95,0-9.88c3.39-2.13,6.77-2.2,10.12.09q-.09,4.88-.19,9.77Z" fill="#fff"/><path d="M90,90.19,99.82,90a9,9,0,0,1,10.13.09l0,0c0,3.27,0,6.53,0,9.8l-9.9.28c-3,1.94-6.22,1.5-9.46.73a2.91,2.91,0,0,1-1.31-1.19C88.36,96.4,87.79,93.19,90,90.19Z" fill="#fff"/><path d="M89.93,100l10.13.09q-.09,4.88-.19,9.77l-10,.35,0-.41A8.38,8.38,0,0,1,89.93,100Z" fill="#fff"/><path d="M89.93,100c0,3.27,0,6.53,0,9.8l-9.9.28L70,110l0,0c-2.18-3.31-2-6.7-.34-10.14,3.19-2.15,6.79-1.22,10.25-1.32,3.41.12,7-.88,10.08,1.47Z" fill="#fff"/><path d="M39.94,100.05l-9.83-.16c-.05-3.27-.11-6.55-.16-9.83L30,90c3.2-2.09,6.49-1.85,9.82-.36,2.29,3.08,1.85,6.38.77,9.73Z" fill="#fff"/><path d="M49.94,110l-9.84-.16q-.08-4.91-.16-9.83l.05,0c3.34-2.13,6.7-2,10.09-.13,1.9,3.39,2,6.76-.09,10.12Z" fill="#fff"/><path d="M30,80q0-5-.07-9.93l0,0a8.64,8.64,0,0,1,10,0l0,0c2.18,3.33,2,6.7.18,10.09C36.73,82.05,33.36,82.23,30,80Z" fill="#d9d9d9"/><path d="M40,70.08,30,70l0-10H40Z" fill="#fff"/><path d="M119.87,50.09l10.06,0-.06,9.9-10,.12Z" fill="#fff"/><path d="M119.8,80c0-3.31.09-6.61.13-9.92l10,.16,0,9.85Z" fill="#fff"/><path d="M110,90.05,99.82,90l.15-9.89,10,.13Z" fill="#fff"/><path d="M30,80l9.9.15.57.53c1.13,2.75.88,5.56.32,8.38a2.21,2.21,0,0,1-1,1.14L30,90Z" fill="#fff"/><path d="M109.94,30.09c0,3.35,0,6.7,0,10.05-9.86-.18-9.86-.18-10-10Z" fill="#fff"/><path d="M109.88,40.1l10.06,0,0,10.05C110.06,50,110.06,50,109.88,40.1Z" fill="#fff"/><path d="M90,100l-10.13-.1c-1.93-3.33-2-6.63.21-9.87l0,.06,10,.06Q90,95.11,90,100Z" fill="#fff"/><path d="M39.92,80.14l0-10.09H50c0,3.33,0,6.67,0,10l-.65.61c-3.22,1.09-6.39,1.4-9.42-.59Z" fill="#fff"/><path d="M60,80l0,10-.6.59a13.39,13.39,0,0,1-9.09,0,2.88,2.88,0,0,1-1.12-1.3C48.43,86.14,47.88,83,50,80l0,0Z" fill="#fff"/><path d="M80,90.07l-.21,9.87-9.82.24c-3.05,1.84-6.24,1.42-9.46.62a2.9,2.9,0,0,1-1.29-1.23c-.91-3.25-1.42-6.48.73-9.51l0,0,10,0Z" fill="#bebebe"/><path d="M50,110l-.18-9.8.59-.69c3.27-1.29,6.49-1.48,9.61.41l-.1.22a8.48,8.48,0,0,1,.12,9.8l-.14.15Z" fill="#fff"/><path d="M60,109.94l-.12-9.8,10.1,0c0,3.28,0,6.56,0,9.85Z" fill="#fff"/><path d="M49.81,100.2,40,100c-.06-3.27-.13-6.55-.19-9.82l.29-.27c3.32-2,6.61-2,9.85.2l-.06-.06c2.22,3.24,2.15,6.52.2,9.85Z" fill="#fff"/><path d="M49.94,90.12l-9.85-.2c-.07-3.28-.13-6.57-.2-9.85L50,80C50,83.39,50,86.76,49.94,90.12Z" fill="#d9d9d9"/><path d="M50.08,99.91c-.06-3.28-.13-6.57-.2-9.85H60q0,4.92,0,9.86Z" fill="#d9d9d9"/></svg>